<?xml version="1.0" encoding="utf-8"?>
<!-- Generator: Adobe Illustrator 16.0.0, SVG Export Plug-In . SVG Version: 6.00 Build 0)  -->
<!DOCTYPE svg PUBLIC "-//W3C//DTD SVG 1.1//EN" "http://www.w3.org/Graphics/SVG/1.1/DTD/svg11.dtd">
<svg version="1.1" id="Layer_1" xmlns="http://www.w3.org/2000/svg" xmlns:xlink="http://www.w3.org/1999/xlink" x="0px" y="0px"
	 width="472.917px" height="510.417px" viewBox="0 0 472.917 510.417" enable-background="new 0 0 472.917 510.417"
	 xml:space="preserve">
<g>
	
		<polygon fill="none" stroke="#000000" stroke-width="1.5708" stroke-linecap="round" stroke-linejoin="round" stroke-miterlimit="10" points="
		78.898,207.316 78.224,208.667 75.026,218.26 65.814,225.946 54.343,241.671 42.109,251.646 24.477,254.815 18.815,252.849 
		11.539,256.81 6.053,260.534 6.053,260.534 5.995,505.65 5.907,505.65 469.12,505.65 469.12,226.327 450.635,209.282 
		435.029,195.906 365.851,161.755 345.547,151.957 318.94,132.418 312.485,131.421 311.781,134.618 294.676,129.661 
		279.539,115.695 278.014,110.063 272.733,106.865 271.881,88.705 257.036,67.259 241.313,44.288 226.937,32.582 224.121,27.8 
		200.034,10.227 196.602,10.227 188.475,5.65 174.54,21.874 174.099,25.365 171.811,47.574 170.754,53.47 164.887,53.793 
		161.572,61.772 159.577,60.951 157.67,59.807 154.326,64.267 152.213,65.264 151.833,75.942 148.311,82.69 141.564,97.741 
		141.182,100 141.33,108.391 132.88,118.717 128.479,136.876 128.479,136.876 123.991,140.34 116.157,146.47 114.485,147.086 
		108.266,153.776 107.943,154.069 92.129,162.665 87.348,176.747 87.436,177.041 80.659,187.69 81.099,198.955 78.898,207.992 	"/>
	<polyline fill="none" stroke="#000000" stroke-width="3.1415" stroke-miterlimit="10" points="78.898,207.316 78.224,208.667 
		75.026,218.26 65.814,225.946 54.343,241.671 42.109,251.646 24.477,254.815 18.815,252.849 11.539,256.81 6.053,260.534 
		6.053,260.534 5.995,505.65 5.907,505.65 469.12,505.65 469.12,226.327 450.635,209.282 435.029,195.906 365.851,161.755 
		345.547,151.957 318.94,132.418 312.485,131.421 311.781,134.618 294.676,129.661 279.539,115.695 278.014,110.063 
		272.733,106.865 271.881,88.705 257.036,67.259 241.313,44.288 226.937,32.582 224.121,27.8 200.034,10.227 196.602,10.227 
		188.475,5.65 174.54,21.874 174.099,25.365 171.811,47.574 170.754,53.47 164.887,53.793 161.572,61.772 159.577,60.951 
		157.67,59.807 154.326,64.267 152.213,65.264 151.833,75.942 148.311,82.69 141.564,97.741 141.182,100 141.33,108.391 
		132.88,118.717 128.479,136.876 128.479,136.876 123.991,140.34 116.157,146.47 114.485,147.086 108.266,153.776 107.943,154.069 
		92.129,162.665 87.348,176.747 87.436,177.041 80.659,187.69 81.099,198.955 78.898,207.992 78.898,207.316 	"/>
	<polygon fill-rule="evenodd" clip-rule="evenodd" points="185.717,76.53 189.149,70.604 190.294,71.806 191.204,69.166 
		192.347,60.951 196.513,56.609 197.217,61.772 199.124,61.245 197.658,64.442 195.985,67.934 195.604,71.131 190.382,76.852 
		188.709,76.677 186.773,76.148 	"/>
	
		<polyline fill="none" stroke="#000000" stroke-width="1.4669" stroke-linecap="round" stroke-linejoin="round" stroke-miterlimit="10" points="
		185.717,76.53 189.149,70.604 190.294,71.806 191.204,69.166 192.347,60.951 196.513,56.609 197.217,61.772 199.124,61.245 
		197.658,64.442 195.985,67.934 195.604,71.131 190.382,76.852 188.709,76.677 186.773,76.148 185.717,76.53 	"/>
	<polygon fill-rule="evenodd" clip-rule="evenodd" points="178.441,81.224 177.825,79.405 177.209,77.821 175.596,77.058 
		175.83,75.386 177.209,72.422 176.446,68.461 178.969,71.278 182.167,68.638 183.664,70.281 183.664,73.566 178.441,81.019 	"/>
	
		<polyline fill="none" stroke="#000000" stroke-width="1.4669" stroke-linecap="round" stroke-linejoin="round" stroke-miterlimit="10" points="
		178.441,81.224 177.825,79.405 177.209,77.821 175.596,77.058 175.83,75.386 177.209,72.422 176.446,68.461 178.969,71.278 
		182.167,68.638 183.664,70.281 183.664,73.566 178.441,81.019 178.441,81.224 	"/>
	<polygon fill-rule="evenodd" clip-rule="evenodd" points="192.112,185.401 192.641,189.744 194.313,188.07 197.217,185.021 
		195.838,190.564 199.124,188.687 202.674,186.545 206.341,185.254 205.784,189.89 204.875,194.614 199.799,197.578 
		197.217,195.906 188.709,204.266 185.335,205.879 185.482,204.354 190.059,196.375 191.497,194.056 188.563,193.675 
		189.531,191.27 192.201,186.018 	"/>
	
		<polyline fill="none" stroke="#000000" stroke-width="1.4669" stroke-linecap="round" stroke-linejoin="round" stroke-miterlimit="10" points="
		192.112,185.401 192.641,189.744 194.313,188.07 197.217,185.021 195.838,190.564 199.124,188.687 202.674,186.545 
		206.341,185.254 205.784,189.89 204.875,194.614 199.799,197.578 197.217,195.906 188.709,204.266 185.335,205.879 
		185.482,204.354 190.059,196.375 191.497,194.056 188.563,193.675 189.531,191.27 192.201,186.018 192.112,185.401 	"/>
	<polygon fill-rule="evenodd" clip-rule="evenodd" points="199.183,328.13 196.132,324.933 189.238,323.083 185.101,324.08 
		181.786,325.402 179.262,321.058 175.537,314.048 170.608,307.388 172.133,307.74 180.553,311.379 188.093,318.77 194.929,322.261 
		198.596,322.645 203.73,325.077 203.349,327.982 199.183,328.13 	"/>
	
		<polyline fill="none" stroke="#000000" stroke-width="1.4669" stroke-linecap="round" stroke-linejoin="round" stroke-miterlimit="10" points="
		199.183,328.13 196.132,324.933 189.238,323.083 185.101,324.08 181.786,325.402 179.262,321.058 175.537,314.048 170.608,307.388 
		172.133,307.74 180.553,311.379 188.093,318.77 194.929,322.261 198.596,322.645 203.73,325.077 203.349,327.982 199.183,328.13 
		199.183,328.13 	"/>
	<polygon fill-rule="evenodd" clip-rule="evenodd" points="129.829,241.143 130.357,234.981 128.245,235.276 118.211,239.822 
		121.086,245.866 162.305,238.854 159.489,233.457 165.269,232.871 181.316,217.203 180.495,210.868 165.797,217.791 
		163.831,221.986 152.272,224.655 157.289,230.171 145.29,235.833 139.041,230.493 136.694,235.276 134.405,240.528 
		129.975,241.289 	"/>
	
		<polyline fill="none" stroke="#000000" stroke-width="1.4669" stroke-linecap="round" stroke-linejoin="round" stroke-miterlimit="10" points="
		129.829,241.143 130.357,234.981 128.245,235.276 118.211,239.822 121.086,245.866 162.305,238.854 159.489,233.457 
		165.269,232.871 181.316,217.203 180.495,210.868 165.797,217.791 163.831,221.986 152.272,224.655 157.289,230.171 
		145.29,235.833 139.041,230.493 136.694,235.276 134.405,240.528 129.975,241.289 129.829,241.143 	"/>
	<polygon fill-rule="evenodd" clip-rule="evenodd" points="83.065,271.039 94.33,267.048 108.471,263.646 112.108,258.16 
		120.412,256.633 125.897,257.776 113.429,268.134 106.975,269.747 104.979,268.575 98.144,270.128 93.655,271.098 82.918,271.244 	
		"/>
	
		<polyline fill="none" stroke="#000000" stroke-width="1.4669" stroke-linecap="round" stroke-linejoin="round" stroke-miterlimit="10" points="
		83.065,271.039 94.33,267.048 108.471,263.646 112.108,258.16 120.412,256.633 125.897,257.776 113.429,268.134 106.975,269.747 
		104.979,268.575 98.144,270.128 93.655,271.098 82.918,271.244 83.065,271.039 	"/>
	<polygon fill-rule="evenodd" clip-rule="evenodd" points="342.644,383.314 337.804,382.346 339.857,378.357 334.665,377.299 
		317.795,375.568 319.32,376.243 334.519,385.22 342.967,383.314 	"/>
	
		<polyline fill="none" stroke="#000000" stroke-width="1.4669" stroke-linecap="round" stroke-linejoin="round" stroke-miterlimit="10" points="
		342.644,383.314 337.804,382.346 339.857,378.357 334.665,377.299 317.795,375.568 319.32,376.243 334.519,385.22 342.967,383.314 
		342.644,383.314 	"/>
	<polygon fill-rule="evenodd" clip-rule="evenodd" points="198.127,74.095 199.887,73.478 202.528,71.425 203.73,71.278 
		202.293,74.623 199.711,79.728 192.582,93.868 193.55,95.159 185.423,100.85 182.9,102.7 183.458,102.522 193.491,99.031 
		192.787,105.72 192.641,105.047 198.655,95.834 197.511,93.487 201.53,89.38 203.202,85.889 212.326,63.211 212.795,58.81 
		210.361,59.807 207.867,63.152 205.402,68.08 202.146,67.553 196.836,72.1 197.892,73.185 	"/>
	
		<polyline fill="none" stroke="#000000" stroke-width="1.4669" stroke-linecap="round" stroke-linejoin="round" stroke-miterlimit="10" points="
		198.127,74.095 199.887,73.478 202.528,71.425 203.73,71.278 202.293,74.623 199.711,79.728 192.582,93.868 193.55,95.159 
		185.423,100.85 182.9,102.7 183.458,102.522 193.491,99.031 192.787,105.72 192.641,105.047 198.655,95.834 197.511,93.487 
		201.53,89.38 203.202,85.889 212.326,63.211 212.795,58.81 210.361,59.807 207.867,63.152 205.402,68.08 202.146,67.553 
		196.836,72.1 197.892,73.185 198.127,74.095 	"/>
	<polygon fill-rule="evenodd" clip-rule="evenodd" points="317.355,408.72 292.243,409.042 290.893,413.503 291.274,414.647 
		297.259,425.882 300.397,432.22 287.666,429.843 296.642,440.875 300.104,444.746 300.104,444.599 287.899,438.233 270.65,428.876 
		260.527,423.243 246.564,399.596 245.947,383.784 256.597,385.748 264.342,384.604 269.212,390.092 290.218,398.071 315.8,407.87 
		317.943,408.631 	"/>
	
		<polyline fill="none" stroke="#000000" stroke-width="1.4669" stroke-linecap="round" stroke-linejoin="round" stroke-miterlimit="10" points="
		317.355,408.72 292.243,409.042 290.893,413.503 291.274,414.647 297.259,425.882 300.397,432.22 287.666,429.843 296.642,440.875 
		300.104,444.746 300.104,444.599 287.899,438.233 270.65,428.876 260.527,423.243 246.564,399.596 245.947,383.784 
		256.597,385.748 264.342,384.604 269.212,390.092 290.218,398.071 315.8,407.87 317.943,408.631 317.355,408.72 	"/>
	<polygon fill-rule="evenodd" clip-rule="evenodd" points="263.138,380.731 252.342,373.602 247.091,373.749 237.116,374.719 
		250.641,382.198 250.788,382.198 244.509,380.674 190.294,359.903 193.11,357.32 196.689,355.121 206.341,354.885 209.011,349.252 
		188.093,340.423 200.415,339.072 202.146,342.653 241.987,357.849 243.13,358.67 240.607,353.535 243.276,353.449 250.964,354.593 
		282.766,369.027 285.26,370.316 287.225,371.228 287.225,371.375 272.351,375.949 268.506,373.458 259.852,375.421 
		260.381,376.771 263.286,380.968 	"/>
	
		<polyline fill="none" stroke="#000000" stroke-width="1.4669" stroke-linecap="round" stroke-linejoin="round" stroke-miterlimit="10" points="
		263.138,380.731 252.342,373.602 247.091,373.749 237.116,374.719 250.641,382.198 250.788,382.198 244.509,380.674 
		190.294,359.903 193.11,357.32 196.689,355.121 206.341,354.885 209.011,349.252 188.093,340.423 200.415,339.072 202.146,342.653 
		241.987,357.849 243.13,358.67 240.607,353.535 243.276,353.449 250.964,354.593 282.766,369.027 285.26,370.316 287.225,371.228 
		287.225,371.375 272.351,375.949 268.506,373.458 259.852,375.421 260.381,376.771 263.286,380.968 263.138,380.731 	"/>
	<polygon fill-rule="evenodd" clip-rule="evenodd" points="292.476,390.619 290.598,389.239 265.251,378.912 264.958,378.59 
		281.475,392.291 291.42,390.941 294.148,390.619 	"/>
	
		<polyline fill="none" stroke="#000000" stroke-width="1.4669" stroke-linecap="round" stroke-linejoin="round" stroke-miterlimit="10" points="
		292.476,390.619 290.598,389.239 265.251,378.912 264.958,378.59 281.475,392.291 291.42,390.941 294.148,390.619 292.476,390.619 
			"/>
	<polygon fill-rule="evenodd" clip-rule="evenodd" points="87.348,176.747 92.129,162.665 107.943,154.069 107.943,154.069 
		112.813,152.104 112.813,158.646 109.322,163.957 109.322,171.026 107.356,173.081 103.748,176.366 100.11,177.744 94.624,179.563 
		92.658,175.603 91.279,173.226 87.436,177.041 	"/>
	
		<polyline fill="none" stroke="#000000" stroke-width="1.4669" stroke-linecap="round" stroke-linejoin="round" stroke-miterlimit="10" points="
		87.348,176.747 92.129,162.665 107.943,154.069 107.943,154.069 112.813,152.104 112.813,158.646 109.322,163.957 109.322,171.026 
		107.356,173.081 103.748,176.366 100.11,177.744 94.624,179.563 92.658,175.603 91.279,173.226 87.436,177.041 87.348,176.747 	"/>
	<polygon fill-rule="evenodd" clip-rule="evenodd" points="6.053,260.534 11.539,256.81 18.815,252.849 24.477,254.815 
		42.109,251.646 54.343,241.671 65.814,225.946 75.026,218.26 78.224,208.667 78.898,207.316 78.898,207.316 79.045,209.194 
		77.931,214.623 80.043,216.822 85.294,214.241 87.29,221.81 87.729,220.607 89.695,217.936 96.942,212.92 107.356,196.051 
		111.904,189.362 116.539,185.254 117.067,185.401 101.313,216.822 113.957,209.194 115.776,203.269 119.268,201.36 122.759,200.54 
		118.739,204.735 126.866,206.702 134.112,194.672 145.348,183.582 148.399,185.929 136.84,194.232 137.604,193.528 149.925,188.07 
		149.69,189.362 148.546,190.564 136.078,196.228 135.784,204.735 114.867,226.152 109.909,227.529 99.493,237.476 96.179,235.276 
		87.348,244.634 78.987,245.308 68.19,253.318 51.086,259.01 53.58,259.627 62.03,260.302 63.379,260.534 62.03,260.771 
		42.931,267.575 39.586,264.554 30.697,266.521 18.815,271.566 16.791,270.803 11.158,269.572 	"/>
	
		<polyline fill="none" stroke="#000000" stroke-width="1.4669" stroke-linecap="round" stroke-linejoin="round" stroke-miterlimit="10" points="
		6.053,260.534 11.539,256.81 18.815,252.849 24.477,254.815 42.109,251.646 54.343,241.671 65.814,225.946 75.026,218.26 
		78.224,208.667 78.898,207.316 78.898,207.316 79.045,209.194 77.931,214.623 80.043,216.822 85.294,214.241 87.29,221.81 
		87.729,220.607 89.695,217.936 96.942,212.92 107.356,196.051 111.904,189.362 116.539,185.254 117.067,185.401 101.313,216.822 
		113.957,209.194 115.776,203.269 119.268,201.36 122.759,200.54 118.739,204.735 126.866,206.702 134.112,194.672 145.348,183.582 
		148.399,185.929 136.84,194.232 137.604,193.528 149.925,188.07 149.69,189.362 148.546,190.564 136.078,196.228 135.784,204.735 
		114.867,226.152 109.909,227.529 99.493,237.476 96.179,235.276 87.348,244.634 78.987,245.308 68.19,253.318 51.086,259.01 
		53.58,259.627 62.03,260.302 63.379,260.534 62.03,260.771 42.931,267.575 39.586,264.554 30.697,266.521 18.815,271.566 
		16.791,270.803 11.158,269.572 6.053,260.534 	"/>
	
		<polyline fill="none" stroke="#000000" stroke-width="1.4669" stroke-linecap="round" stroke-linejoin="round" stroke-miterlimit="10" points="
		224.121,27.8 200.034,10.227 196.602,10.227 188.475,5.65 174.54,21.874 174.099,25.365 171.811,47.574 170.754,53.47 
		164.887,53.793 161.572,61.772 159.577,60.951 157.67,59.807 154.326,64.267 152.213,65.264 151.833,75.942 148.311,82.69 
		141.564,97.741 141.182,100 141.33,108.391 132.88,118.717 128.479,136.876 145.495,127.988 158.58,107.863 159.108,106.865 
		156.761,108.684 153.563,102.7 155.088,102.083 160.487,101.377 162.687,93.868 163.215,89.526 163.157,92.724 164.975,94.719 
		169.317,87.032 170.52,79.493 174.334,72.422 172.955,61.479 171.225,59.572 179.879,52.414 188.328,47.485 191.204,45.813 
		201.911,45.256 212.033,39.271 224.121,27.8 	"/>
	<polygon fill-rule="evenodd" clip-rule="evenodd" points="11.217,269.658 11.217,500.634 464.542,500.634 464.542,467.571 
		469.12,468.774 469.12,505.65 5.907,505.65 5.995,505.65 6.053,260.534 	"/>
	
		<polyline fill="none" stroke="#000000" stroke-width="1.4669" stroke-linecap="round" stroke-linejoin="round" stroke-miterlimit="10" points="
		11.217,269.658 11.217,500.634 464.542,500.634 464.542,467.571 469.12,468.774 469.12,505.65 5.907,505.65 5.995,505.65 
		6.053,260.534 11.217,269.658 	"/>
	<polygon fill-rule="evenodd" clip-rule="evenodd" points="450.632,209.289 435.034,195.906 365.857,161.758 345.547,151.956 
		318.938,132.416 312.484,131.426 311.776,134.615 294.671,129.667 279.545,115.703 278.02,110.063 272.727,106.859 271.878,88.702 
		257.036,67.26 241.311,44.28 226.94,32.578 224.128,27.803 200.032,10.226 196.608,10.226 188.472,5.655 174.539,21.882 
		174.099,25.368 171.806,47.579 170.753,53.469 164.895,53.799 161.564,61.779 159.57,60.946 157.669,59.799 154.323,64.261 
		152.218,65.266 151.826,75.947 148.307,82.686 141.569,97.734 141.176,99.996 141.333,108.383 132.882,118.719 128.484,136.877 
		145.496,127.986 158.58,107.865 159.114,106.859 156.758,108.682 153.569,102.697 155.093,102.084 160.481,101.377 162.68,93.869 
		163.213,89.534 163.151,92.722 164.973,94.717 169.324,87.037 170.518,79.497 174.334,72.428 172.953,61.48 171.225,59.58 
		179.879,52.417 188.331,47.485 191.205,45.819 201.917,45.254 212.033,39.27 215.378,46.574 218.347,48.49 226.342,54.239 
		221.976,60.098 221.976,83.753 224.819,91.199 223.358,102.147 226.877,104.519 228.165,113.724 229.657,114.085 230.804,114.164 
		236.819,123.682 235.861,131.804 232.72,138.636 231.479,142.014 232.72,142.453 232.327,147.463 231.337,160.784 222.148,171.873 
		219.872,179.947 215.521,183.355 214.467,184.722 213.18,192.01 211.734,193.534 207.713,195.906 201.321,202.598 198.98,203.744 
		196.514,205.409 194.393,206.022 201.917,207.906 204.87,206.933 209.928,205.032 211.892,206.933 216.368,202.362 217.609,202.22 
		220.248,202.739 224.034,200.54 229.453,196.896 232.107,196.047 232.013,196.377 218.866,212.682 221.253,213.452 
		217.672,220.143 218.583,223.662 218.724,228.154 214.374,231.876 218.033,245.228 215.237,242.966 212.033,241.144 
		200.613,249.657 195.697,248.652 173.486,265.931 172.042,264.847 161.863,269.747 156.758,268.429 126.804,287.434 
		121.557,291.109 122.767,291.252 128.767,291.55 148.778,280.932 151.888,282.424 153.271,283.854 145.15,290.575 156.758,289.146 
		159.35,285.235 165.79,285.533 159.868,296.184 158.438,298.995 172.042,296.184 175.01,294.22 179.738,293.891 184.372,292.461 
		184.717,289.43 193.843,291.55 220.625,280.225 210.069,287.529 221.772,285.093 230.128,283.413 227.646,286.915 209.975,292.225 
		208.782,293.891 204.352,302.199 198.807,304.163 193.545,306.975 191.598,308.75 195.744,307.745 204.87,306.063 210.98,301.9 
		214.609,299.766 233.097,294.66 244.657,288.675 265.721,287.529 287.367,275.261 295.206,271.334 293.382,276.172 
		301.456,273.831 306.293,268.962 310.818,268.507 317.18,263.261 326.855,263.261 327.295,269.276 321.813,266.527 
		311.195,275.197 301.597,275.197 297.781,281.513 283.062,283.648 272.351,288.675 270.182,290.198 277.864,291.927 
		280.392,291.628 285.843,288.959 297.028,284.622 296.65,287.151 300.844,285.817 311.494,282.188 320.62,281.513 333.311,285.299 
		335.982,295.413 337.804,300.911 343.695,301.9 340.976,307.383 339.705,308.436 328.379,303.33 315.28,297.88 317.274,301.43 
		317.73,302.577 317.73,302.812 302.981,297.267 303.796,299.23 307.991,302.875 322.662,308.498 382.068,319.871 382.43,319.775 
		382.665,319.981 382.068,319.871 374.057,321.787 389.262,324.175 388.587,326.688 377.638,327.521 374.969,330.771 
		366.313,328.808 362.952,332.437 354.438,331.447 342.265,341.421 351.234,343.039 343.695,346.385 339.154,347.956 
		333.987,342.474 341.15,340.369 349.427,331.307 335.039,324.85 332.463,328.039 326.149,328.369 323.337,322.791 296.492,321.064 
		292.927,320.891 295.206,322.116 305.179,325.698 295.817,329.326 293.382,334.667 320.463,337.306 325.159,340.651 
		323.337,341.044 310.143,340.51 303.796,338.154 296.87,340.651 304.801,345.992 332.023,349.4 333.845,355.118 304.471,348.631 
		299.729,345.175 266.869,338.83 265.784,339.128 260.757,340.81 255.073,337.872 231.479,344.328 240.166,346.825 246.559,345.474 
		249.15,345.003 246.952,345.756 242.993,350.076 255.213,350.924 262.47,347.956 262.846,347.814 260.757,350.987 263.757,350.453 
		268.973,348.819 276.576,343.793 285.843,347.956 284.884,354.6 291.89,353.297 302.651,350.846 299.493,357.616 301.692,359.281 
		311.776,355.653 311.776,356.705 310.346,359.956 324.484,360.569 321.515,361.574 301.159,365.391 307.142,367.261 
		337.191,373.276 335.746,369.083 356.966,377.393 361.742,379.591 356.668,380.438 354.438,380.58 356.432,382.12 374.292,390.414 
		377.403,391.623 345.17,384.461 346.632,386.659 348.595,388.56 340.379,390.555 336.124,396.634 355.757,395.346 368.434,401.205 
		369.721,408.257 384.094,406.577 382.743,417.462 402.88,431.991 424.557,434.237 434.265,447.747 451.605,455.191 464.548,467.57 
		469.026,468.778 469.12,319.07 469.12,226.332 	"/>
	<polygon fill-rule="evenodd" clip-rule="evenodd" points="292.189,320.498 292.927,320.891 291.56,320.828 	"/>
	<polygon fill-rule="evenodd" clip-rule="evenodd" points="382.665,319.981 382.068,319.871 382.43,319.775 	"/>
	<polygon fill-rule="evenodd" clip-rule="evenodd" points="190.435,309.032 191.598,308.75 191.283,309.032 	"/>
	<polygon fill-rule="evenodd" clip-rule="evenodd" points="218.127,245.306 218.049,245.306 218.033,245.228 	"/>
	<polygon fill-rule="evenodd" clip-rule="evenodd" points="382.665,319.981 382.068,319.871 382.43,319.775 	"/>
</g>
</svg>
